# This file uses centimeters as units for non-parametric coordinates.

mtllib OBJ_Ammo.mtl
g default
v -5.340711 -1.786680 3.210394
v -5.340711 1.786680 3.210394
v 5.340711 -1.786680 3.210394
v 5.340711 1.786680 3.210394
v 5.340711 -1.786680 -3.210394
v 5.340711 1.786680 -3.210394
v -5.340711 -1.786680 -3.210394
v -5.340711 1.786680 -3.210394
vt 0.501994 0.390730
vt 0.501994 0.609270
vt 0.191280 0.609270
vt 0.191280 0.390730
vt 0.687096 0.390730
vt 0.687096 0.609270
vt 0.500321 0.609270
vt 0.500321 0.390730
vt 0.997812 0.390730
vt 0.997812 0.609270
vt 0.189607 0.390730
vt 0.189607 0.609270
vt 0.002831 0.609270
vt 0.002831 0.390730
vt 0.500321 1.001951
vt 0.189607 1.001951
vt 0.500321 -0.001951
vt 0.189607 -0.001951
vn 0.000000 0.000000 1.000000
vn 0.000000 0.000000 1.000000
vn 0.000000 0.000000 1.000000
vn 0.000000 0.000000 1.000000
vn 1.000000 0.000000 0.000000
vn 1.000000 0.000000 0.000000
vn 1.000000 0.000000 0.000000
vn 1.000000 0.000000 0.000000
vn 0.000000 0.000000 -1.000000
vn 0.000000 0.000000 -1.000000
vn 0.000000 0.000000 -1.000000
vn 0.000000 0.000000 -1.000000
vn -1.000000 0.000000 0.000000
vn -1.000000 0.000000 0.000000
vn -1.000000 0.000000 0.000000
vn -1.000000 0.000000 0.000000
vn 0.000000 1.000000 0.000000
vn 0.000000 1.000000 0.000000
vn 0.000000 1.000000 0.000000
vn 0.000000 1.000000 0.000000
vn 0.000000 -1.000000 0.000000
vn 0.000000 -1.000000 0.000000
vn 0.000000 -1.000000 0.000000
vn 0.000000 -1.000000 0.000000
s off
g ammo_box2:Cube group
usemtl phong1SG
f 3/1/1 4/2/2 2/3/3 1/4/4
f 5/5/5 6/6/6 4/7/7 3/8/8
f 7/9/9 8/10/10 6/6/11 5/5/12
f 1/11/13 2/12/14 8/13/15 7/14/16
f 4/7/17 6/15/18 8/16/19 2/12/20
f 5/17/21 3/8/22 1/11/23 7/18/24
