# This file uses centimeters as units for non-parametric coordinates.

mtllib OBJ_LaserBeam.mtl
g default
v 0.809017 0.587785 -50.000000
v 0.309017 0.951057 -50.000000
v -0.309017 0.951057 -50.000000
v -0.809017 0.587785 -50.000000
v -1.000000 -0.000000 -50.000000
v -0.809017 -0.587785 -50.000000
v -0.309017 -0.951057 -50.000000
v 0.309017 -0.951057 -50.000000
v 0.809017 -0.587785 -50.000000
v 1.000000 -0.000000 -50.000000
v 0.809017 0.587785 50.000000
v 0.309017 0.951057 50.000000
v -0.309017 0.951057 50.000000
v -0.809017 0.587785 50.000000
v -1.000000 -0.000000 50.000000
v -0.809017 -0.587785 50.000000
v -0.309017 -0.951057 50.000000
v 0.309017 -0.951057 50.000000
v 0.809017 -0.587785 50.000000
v 1.000000 0.000000 50.000000
v 0.000000 -0.000000 -50.000000
v 0.000000 0.000000 50.000000
vt 1.354182 0.343840
vt 1.339954 0.333503
vt 1.322367 0.333503
vt 1.308139 0.343840
vt 1.302705 0.360566
vt 1.308139 0.377293
vt 1.322367 0.387630
vt 1.339954 0.387630
vt 1.354182 0.377293
vt 1.359617 0.360567
vt 1.269962 0.357639
vt 1.331161 0.359428
vt 1.298418 0.358777
vt 1.292984 0.375503
vt 1.278756 0.385841
vt 1.261169 0.385841
vt 1.246941 0.375503
vt 1.241506 0.358777
vt 1.246941 0.342051
vt 1.261169 0.331714
vt 1.278755 0.331714
vt 1.292984 0.342051
vt 1.019563 0.683717
vt 1.019563 0.316283
vt 2.019563 0.316283
vt 2.019563 0.683717
vt 1.019563 0.683717
vt 1.019563 0.316283
vt 2.019563 0.316283
vt 2.019563 0.683717
vt 1.019563 0.683717
vt 1.019563 0.316283
vt 2.019563 0.316283
vt 2.019563 0.683717
vt 1.019563 0.683717
vt 1.019563 0.316283
vt 2.019563 0.316283
vt 2.019563 0.683717
vt 1.019563 0.683717
vt 1.019563 0.316283
vt 2.019563 0.316283
vt 2.019563 0.683717
vt 1.019563 0.683717
vt 1.019563 0.316283
vt 2.019563 0.316283
vt 2.019563 0.683717
vt 1.019563 0.683717
vt 1.019563 0.316283
vt 2.019563 0.316283
vt 2.019563 0.683717
vt 1.019563 0.683717
vt 1.019563 0.316283
vt 2.019563 0.316283
vt 2.019563 0.683717
vt 1.019563 0.683717
vt 1.019563 0.316283
vt 2.019563 0.316283
vt 2.019563 0.683717
vt 1.019563 0.316283
vt 1.019563 0.683717
vt 2.019563 0.683717
vt 2.019563 0.316283
vn 0.587785 0.809017 -0.000000
vn 0.587785 0.809017 -0.000000
vn 0.587785 0.809017 -0.000000
vn 0.587785 0.809017 -0.000000
vn -0.000000 1.000000 -0.000000
vn -0.000000 1.000000 -0.000000
vn -0.000000 1.000000 -0.000000
vn -0.000000 1.000000 -0.000000
vn -0.587785 0.809017 -0.000000
vn -0.587785 0.809017 -0.000000
vn -0.587785 0.809017 -0.000000
vn -0.587785 0.809017 -0.000000
vn -0.951057 0.309017 -0.000000
vn -0.951057 0.309017 -0.000000
vn -0.951057 0.309017 -0.000000
vn -0.951057 0.309017 -0.000000
vn -0.951057 -0.309017 0.000000
vn -0.951057 -0.309017 0.000000
vn -0.951057 -0.309017 0.000000
vn -0.951057 -0.309017 0.000000
vn -0.587785 -0.809017 0.000000
vn -0.587785 -0.809017 0.000000
vn -0.587785 -0.809017 0.000000
vn -0.587785 -0.809017 0.000000
vn 0.000000 -1.000000 0.000000
vn 0.000000 -1.000000 0.000000
vn 0.000000 -1.000000 0.000000
vn 0.000000 -1.000000 0.000000
vn 0.587785 -0.809017 0.000000
vn 0.587785 -0.809017 0.000000
vn 0.587785 -0.809017 0.000000
vn 0.587785 -0.809017 0.000000
vn 0.951057 -0.309017 0.000000
vn 0.951057 -0.309017 0.000000
vn 0.951057 -0.309017 0.000000
vn 0.951057 -0.309017 0.000000
vn 0.951057 0.309017 -0.000000
vn 0.951057 0.309017 -0.000000
vn 0.951057 0.309017 -0.000000
vn 0.951057 0.309017 -0.000000
vn 0.000000 -0.000003 -1.000000
vn 0.000000 -0.000000 -1.000000
vn 0.000000 0.000000 -1.000000
vn 0.000000 -0.000003 -1.000000
vn 0.000000 -0.000000 -1.000000
vn 0.000000 -0.000000 -1.000000
vn 0.000000 0.000003 -1.000000
vn 0.000000 0.000003 -1.000000
vn 0.000000 -0.000000 -1.000000
vn 0.000000 -0.000000 -1.000000
vn 0.000000 -0.000000 -1.000000
vn 0.000000 0.000000 1.000000
vn 0.000000 -0.000003 1.000000
vn 0.000000 0.000000 1.000000
vn 0.000000 -0.000000 1.000000
vn 0.000000 0.000003 1.000000
vn 0.000000 0.000000 1.000000
vn 0.000000 0.000000 1.000000
vn 0.000000 0.000000 1.000000
vn 0.000000 0.000000 1.000000
vn 0.000000 0.000000 1.000000
vn 0.000000 0.000000 1.000000
s off
g pCylinder1
usemtl phong1SG
f 1/55/1 2/56/2 12/57/3 11/58/4
f 2/59/5 3/60/6 13/61/7 12/62/8
f 3/23/9 4/24/10 14/25/11 13/26/12
f 4/27/13 5/28/14 15/29/15 14/30/16
f 5/31/17 6/32/18 16/33/19 15/34/20
f 6/35/21 7/36/22 17/37/23 16/38/24
f 7/39/25 8/40/26 18/41/27 17/42/28
f 8/43/29 9/44/30 19/45/31 18/46/32
f 9/47/33 10/48/34 20/49/35 19/50/36
f 10/51/37 1/52/38 11/53/39 20/54/40
s 1
f 2/2/41 1/1/42 21/12/43
f 3/3/44 2/2/41 21/12/43
f 4/4/45 3/3/44 21/12/43
f 5/5/46 4/4/45 21/12/43
f 6/6/47 5/5/46 21/12/43
f 7/7/48 6/6/47 21/12/43
f 8/8/49 7/7/48 21/12/43
f 9/9/50 8/8/49 21/12/43
f 10/10/51 9/9/50 21/12/43
f 1/1/42 10/10/51 21/12/43
s 2
f 11/14/52 12/15/53 22/11/54
f 12/15/53 13/16/55 22/11/54
f 13/16/55 14/17/56 22/11/54
f 14/17/56 15/18/57 22/11/54
f 15/18/57 16/19/58 22/11/54
f 16/19/58 17/20/59 22/11/54
f 17/20/59 18/21/60 22/11/54
f 18/21/60 19/22/61 22/11/54
f 19/22/61 20/13/62 22/11/54
f 20/13/62 11/14/52 22/11/54
