# This file uses centimeters as units for non-parametric coordinates.

mtllib OBJ_Player_RH.mtl
g character_limb:default1
v 1.743467 5.985939 -1.600674
v -1.743467 5.985939 -1.600674
v -1.743467 5.985939 1.600674
v 1.743470 5.985939 1.600671
v 1.743467 -5.985939 -1.600674
v -1.743471 -5.985939 -1.600671
v -1.743467 -5.985939 1.600674
v 1.743467 -5.985939 1.600674
vt 0.688116 0.499416
vt 0.688116 0.376056
vt 0.749078 0.376056
vt 0.749078 0.499416
vt 0.811400 0.499416
vt 0.750438 0.499416
vt 0.750438 0.376056
vt 0.811400 0.376056
vt 0.749873 0.374112
vt 0.749873 0.001481
vt 0.812002 0.001481
vt 0.812002 0.374112
vt 0.687164 0.374112
vt 0.687164 0.001482
vt 0.749294 0.001482
vt 0.749294 0.374112
vt 0.689080 0.001481
vt 0.689080 0.374112
vt 0.625008 0.374112
vt 0.625008 0.001482
vt 0.812255 0.374112
vt 0.812255 0.001481
vt 0.874384 0.001481
vt 0.874384 0.374112
vn 0.000000 1.000000 0.000000
vn 0.000000 1.000000 0.000000
vn 0.000000 1.000000 0.000000
vn 0.000000 1.000000 0.000000
vn 0.000000 -1.000000 0.000000
vn 0.000000 -1.000000 0.000000
vn 0.000000 -1.000000 0.000000
vn 0.000000 -1.000000 0.000000
vn -0.000000 0.000000 -1.000000
vn -0.000000 0.000000 -1.000000
vn -0.000000 0.000000 -1.000000
vn -0.000000 0.000000 -1.000000
vn -1.000000 0.000000 0.000000
vn -1.000000 0.000000 0.000000
vn -1.000000 0.000000 0.000000
vn -1.000000 0.000000 0.000000
vn 0.000000 0.000000 1.000000
vn 0.000000 0.000000 1.000000
vn 0.000000 0.000000 1.000000
vn 0.000000 0.000000 1.000000
vn 1.000000 0.000000 -0.000000
vn 1.000000 0.000000 -0.000000
vn 1.000000 0.000000 -0.000000
vn 1.000000 0.000000 -0.000000
s off
g character_limb:Mesh character_limb:polySurface2 polySurface4
usemtl lambert4SG
f 1/1/1 2/2/2 3/3/3 4/4/4
f 5/5/5 8/6/6 7/7/7 6/8/8
f 1/13/9 5/14/10 6/15/11 2/16/12
f 2/9/13 6/10/14 7/11/15 3/12/16
f 3/21/17 7/22/18 8/23/19 4/24/20
f 5/17/21 1/18/22 4/19/23 8/20/24
