# This file uses centimeters as units for non-parametric coordinates.

mtllib OBJ_Player_Body.mtl
g character_body:default1
v 3.781950 5.985941 -1.610561
v -3.781953 5.985941 -1.610561
v -3.781950 5.985941 1.590787
v 3.781953 5.985941 1.590784
v 3.781950 -5.985941 -1.610561
v -3.781953 -5.985941 -1.610558
v -3.781950 -5.985941 1.590787
v 3.781950 -5.985941 1.590787
vt 0.312360 0.500065
vt 0.437516 0.500064
vt 0.437516 0.375100
vt 0.312360 0.375100
vt 0.561214 0.499481
vt 0.437193 0.499481
vt 0.437193 0.375460
vt 0.561214 0.375460
vt 0.500126 0.002953
vt 0.500126 0.374932
vt 0.440434 0.374932
vt 0.440434 0.002953
vt 0.250199 0.373087
vt 0.250199 0.001017
vt 0.306091 0.001017
vt 0.306091 0.373087
vt 0.306226 0.375222
vt 0.306226 0.000643
vt 0.440186 0.000643
vt 0.440186 0.375222
vt 0.499816 0.375222
vt 0.499816 0.000643
vt 0.625073 0.000643
vt 0.625073 0.375222
vn 0.000000 1.000000 -0.000000
vn 0.000000 1.000000 -0.000000
vn 0.000000 1.000000 -0.000000
vn 0.000000 1.000000 -0.000000
vn 0.000000 -1.000000 0.000000
vn 0.000000 -1.000000 0.000000
vn 0.000000 -1.000000 0.000000
vn 0.000000 -1.000000 0.000000
vn -0.000000 0.000000 -1.000000
vn -0.000000 0.000000 -1.000000
vn -0.000000 0.000000 -1.000000
vn -0.000000 0.000000 -1.000000
vn -1.000000 0.000000 0.000001
vn -1.000000 0.000000 0.000001
vn -1.000000 0.000000 0.000001
vn -1.000000 0.000000 0.000001
vn 0.000000 0.000000 1.000000
vn 0.000000 0.000000 1.000000
vn 0.000000 0.000000 1.000000
vn 0.000000 0.000000 1.000000
vn 1.000000 0.000000 0.000000
vn 1.000000 0.000000 0.000000
vn 1.000000 0.000000 0.000000
vn 1.000000 0.000000 0.000000
s off
g character_body:Mesh character_body:polySurface5 character_body:polySurface1
usemtl lambert3SG
f 1/1/1 2/2/2 3/3/3 4/4/4
f 5/5/5 8/6/6 7/7/7 6/8/8
f 1/21/9 5/22/10 6/23/11 2/24/12
f 2/13/13 6/14/14 7/15/15 3/16/16
f 3/17/17 7/18/18 8/19/19 4/20/20
f 5/9/21 1/10/22 4/11/23 8/12/24
