# This file uses centimeters as units for non-parametric coordinates.

mtllib OBJ_Player_Head.mtl
g character_head1:default1
v -4.117098 -4.813724 4.144522
v -4.171764 4.750648 4.144522
v -4.171764 4.750648 -4.144522
v -4.117098 -4.813727 -4.144522
v 4.171764 -4.750646 4.144522
v 4.117098 4.813727 4.144518
v 4.117098 4.813724 -4.144522
v 4.171764 -4.750646 -4.144522
v -4.117098 -4.813724 4.144522
v -4.171764 4.750648 4.144522
v -4.171764 4.750648 -4.144522
v -4.117098 -4.813727 -4.144522
vt 0.249314 0.500399
vt 0.372364 0.500399
vt 0.372364 0.749881
vt 0.249314 0.749881
vt 0.125818 0.500886
vt 0.249531 0.500886
vt 0.249531 0.749394
vt 0.125818 0.749394
vt 0.125818 0.750613
vt 0.249531 0.750613
vt 0.249531 0.999121
vt 0.125818 0.999121
vt 0.125822 0.500886
vt 0.125821 0.749394
vt 0.002108 0.749394
vt 0.002108 0.500886
vt 0.499841 0.749394
vt 0.372258 0.749394
vt 0.372258 0.500886
vt 0.499841 0.500886
vt 0.249772 0.749943
vt 0.373486 0.749943
vt 0.373486 0.998451
vt 0.249772 0.998452
vn 0.000000 0.000000 0.000000
vn 0.000000 0.000000 0.000000
vn 0.000000 0.000000 0.000000
vn 0.000000 0.000000 0.000000
vn 0.999984 0.005716 -0.000000
vn 0.999984 0.005716 -0.000000
vn 0.999984 0.005716 -0.000000
vn 0.999984 0.005716 -0.000000
vn 0.000000 0.000000 1.000000
vn 0.000000 0.000000 1.000000
vn 0.000000 0.000000 1.000000
vn 0.000000 0.000000 1.000000
vn -0.007611 0.999971 0.000000
vn -0.007611 0.999971 0.000000
vn -0.007611 0.999971 0.000000
vn -0.007611 0.999971 0.000000
vn -0.000000 0.000000 -1.000000
vn -0.000000 0.000000 -1.000000
vn -0.000000 0.000000 -1.000000
vn -0.000000 0.000000 -1.000000
vn 0.007610 -0.999971 -0.000000
vn 0.007610 -0.999971 -0.000000
vn 0.007610 -0.999971 -0.000000
vn 0.007610 -0.999971 -0.000000
vn -0.999984 -0.005716 0.000000
vn -0.999984 -0.005716 0.000000
vn -0.999984 -0.005716 0.000000
vn -0.999984 -0.005716 0.000000
vn 0.000000 0.000000 0.000000
vn 0.000000 0.000000 0.000000
vn 0.000000 0.000000 0.000000
vn 0.000000 0.000000 0.000000
vn 0.000000 0.000000 0.000000
vn 0.000000 0.000000 0.000000
vn 0.000000 0.000000 0.000000
vn 0.000000 0.000000 0.000000
vn 0.000000 0.000000 0.000000
vn 0.000000 0.000000 0.000000
vn 0.000000 0.000000 0.000000
vn 0.000000 0.000000 0.000000
s off
g character_head1:Mesh character_head1:polySurface6 character_head1:polySurface1
usemtl lambert4SG
f 5/1/5 8/2/6 7/3/7 6/4/8
f 1/5/9 5/6/10 6/7/11 2/8/12
f 2/9/13 6/10/14 7/11/15 3/12/16
f 3/17/17 7/18/18 8/19/19 4/20/20
f 5/21/21 1/22/22 4/23/23 8/24/24
f 9/13/25 10/14/26 11/15/27 12/16/28
